<?xml version="1.0" encoding="UTF-8"?>
<svg version="1.1" xmlns="http://www.w3.org/2000/svg" width="600" height="600">
<path d="M0 0 C3.59313348 -0.00221388 7.18597204 -0.02053554 10.77905273 -0.03930664 C13.10522358 -0.04223717 15.43139586 -0.04422424 17.75756836 -0.04516602 C18.81093887 -0.05235153 19.86430939 -0.05953705 20.94960022 -0.06694031 C36.97621374 -0.01823786 51.62515354 3.26629702 65.00366211 12.18530273 C65.00366211 12.84530273 65.00366211 13.50530273 65.00366211 14.18530273 C65.99366211 14.18530273 66.98366211 14.18530273 68.00366211 14.18530273 C68.00366211 14.84530273 68.00366211 15.50530273 68.00366211 16.18530273 C68.74616211 16.43280273 69.48866211 16.68030273 70.25366211 16.93530273 C73.2859077 18.31359618 74.76785956 19.7398937 77.00366211 22.18530273 C77.84928711 22.96905273 78.69491211 23.75280273 79.56616211 24.56030273 C82.092628 27.28111215 83.41530717 29.85732096 85.00366211 33.18530273 C85.66366211 33.51530273 86.32366211 33.84530273 87.00366211 34.18530273 C87.67032878 36.18530273 88.33699544 38.18530273 89.00366211 40.18530273 C89.7567671 41.69428149 90.52968154 43.1934474 91.31616211 44.68530273 C93.96105319 49.85098443 95.84681453 55.16618566 97.74584961 60.64233398 C101.05145167 70.02800504 101.05145167 70.02800504 105.64038086 78.81811523 C107.33708627 81.76425701 107.23696069 83.84135647 107.00366211 87.18530273 C107.66366211 87.18530273 108.32366211 87.18530273 109.00366211 87.18530273 C110.6583378 90.21180357 111.56610992 93.08949962 112.37866211 96.43530273 C113.33328439 100.0971359 114.43436715 103.33311448 116.19116211 106.68530273 C118.00366211 110.18530273 118.00366211 110.18530273 118.00366211 113.18530273 C118.66366211 113.51530273 119.32366211 113.84530273 120.00366211 114.18530273 C120.68605565 116.17999156 121.34736695 118.1818754 122.00366211 120.18530273 C122.82029315 122.02613659 123.65517228 123.8589346 124.50366211 125.68530273 C126.25562587 129.47180505 127.74152581 133.20471903 129.00366211 137.18530273 C129.37491211 137.86592773 129.74616211 138.54655273 130.12866211 139.24780273 C131.21766951 141.65917627 131.1489772 143.56963113 131.00366211 146.18530273 C131.66366211 146.18530273 132.32366211 146.18530273 133.00366211 146.18530273 C133.35557617 147.22686523 133.70749023 148.26842773 134.07006836 149.34155273 C137.15836177 158.35225244 140.57605282 167.10991447 144.48803711 175.79467773 C146.33994074 179.93759617 147.98968586 184.03530679 149.31616211 188.37280273 C150.75468295 192.76138662 152.69846525 196.75263024 154.81616211 200.84936523 C156.36576604 203.89759929 157.65687598 207.04280177 159.00366211 210.18530273 C160.63504551 213.53667503 162.31676277 216.86160998 164.00366211 220.18530273 C164.34268555 220.92393555 164.68170898 221.66256836 165.03100586 222.42358398 C165.88380064 224.36156381 165.88380064 224.36156381 168.00366211 225.18530273 C168.75496965 226.51610717 169.45558904 227.87576917 170.12866211 229.24780273 C172.89065916 234.39253754 176.46368752 238.50722178 181.00366211 242.18530273 C181.66366211 242.18530273 182.32366211 242.18530273 183.00366211 242.18530273 C183.00366211 242.84530273 183.00366211 243.50530273 183.00366211 244.18530273 C185.99735291 245.20489308 188.99941351 246.19729836 192.00366211 247.18530273 C193.21022461 247.5971582 193.21022461 247.5971582 194.44116211 248.01733398 C198.92651351 249.4765108 203.03865232 250.36585763 207.75366211 250.68530273 C212.12335203 250.9885815 215.26970485 251.72875191 219.00366211 254.18530273 C220.19420469 256.5663879 220.17038025 258.09188168 220.19116211 260.74780273 C220.2053418 261.5534668 220.21952148 262.35913086 220.23413086 263.18920898 C219.64566452 270.83927143 217.2298246 277.7034928 214.31616211 284.74780273 C213.96674561 285.60680176 213.6173291 286.46580078 213.25732422 287.35083008 C205.75091143 305.6908041 205.75091143 305.6908041 202.00366211 313.18530273 C201.34366211 313.18530273 200.68366211 313.18530273 200.00366211 313.18530273 C199.88893555 313.75764648 199.77420898 314.32999023 199.65600586 314.91967773 C198.94183855 317.40001929 197.93058339 319.2489897 196.56616211 321.43530273 C196.13432617 322.14170898 195.70249023 322.84811523 195.25756836 323.57592773 C194.8437793 324.10702148 194.42999023 324.63811523 194.00366211 325.18530273 C193.34366211 325.18530273 192.68366211 325.18530273 192.00366211 325.18530273 C191.78323242 325.74088867 191.56280273 326.29647461 191.33569336 326.86889648 C189.57351771 329.93332511 187.31900994 331.89020718 184.69116211 334.24780273 C183.27383789 335.53364258 183.27383789 335.53364258 181.82788086 336.84545898 C179.29728745 338.94203637 176.85858512 340.5785353 174.00366211 342.18530273 C173.34366211 342.60811523 172.68366211 343.03092773 172.00366211 343.46655273 C161.34443547 349.96201897 149.2283998 350.84668094 137.00366211 351.18530273 C136.02042969 351.21785156 135.03719727 351.25040039 134.02416992 351.28393555 C109.14205524 352.02123856 109.14205524 352.02123856 97.00366211 347.18530273 C96.01366211 346.85530273 95.02366211 346.52530273 94.00366211 346.18530273 C94.00366211 345.52530273 94.00366211 344.86530273 94.00366211 344.18530273 C93.28952148 344.10538086 92.57538086 344.02545898 91.83959961 343.94311523 C80.84464582 341.00506973 70.6223742 327.66946787 65.00366211 318.18530273 C58.91161086 307.51467434 53.83927736 296.47144625 49.00366211 285.18530273 C48.63112305 284.32098633 48.25858398 283.45666992 47.87475586 282.56616211 C46.74530473 279.94162397 45.62279135 277.31425723 44.50366211 274.68530273 C44.15303711 273.86578125 43.80241211 273.04625977 43.44116211 272.2019043 C41.00366211 266.42021327 41.00366211 266.42021327 41.00366211 264.18530273 C40.34366211 263.85530273 39.68366211 263.52530273 39.00366211 263.18530273 C38.13986257 261.04637054 37.36233073 258.87228945 36.62866211 256.68530273 C34.4768291 250.42268288 32.15973569 244.32601008 29.09790039 238.44580078 C26.62504353 233.65574195 24.71289394 228.85516405 23.00366211 223.74780273 C20.45406824 216.33859641 17.60464889 209.27500197 14.00366211 202.31030273 C11.96759995 198.30975872 10.50232501 194.17057507 9.01928711 189.93920898 C7.7712594 186.55513384 6.29264358 183.31301781 4.73803711 180.06030273 C4.00366211 178.18530273 4.00366211 178.18530273 4.00366211 175.18530273 C3.34366211 175.18530273 2.68366211 175.18530273 2.00366211 175.18530273 C1.82915527 174.63060303 1.65464844 174.07590332 1.47485352 173.50439453 C-0.24881571 168.16328047 -2.27448002 163.09138402 -4.62133789 157.99780273 C-7.75543668 151.07798265 -10.70772938 144.10127996 -13.55883789 137.06030273 C-16.40865063 130.02935134 -19.32790411 123.04244483 -22.39624023 116.10424805 C-24.71156082 110.86155692 -26.95977172 105.59233137 -29.18383789 100.31030273 C-29.52592285 99.49803223 -29.86800781 98.68576172 -30.22045898 97.84887695 C-31.92299453 93.79104186 -33.58723015 89.72376698 -35.18383789 85.62280273 C-36.43649268 82.43622475 -37.86399614 79.41558242 -39.43383789 76.37280273 C-41.83211635 71.67799096 -43.69982368 66.87826483 -45.54321289 61.94311523 C-46.93055681 58.28792117 -48.45893718 54.69861254 -49.99707031 51.10473633 C-61.06415189 25.23489238 -61.06415189 25.23489238 -58.18383789 13.12280273 C-57.59602539 11.66874023 -57.59602539 11.66874023 -56.99633789 10.18530273 C-56.00633789 9.85530273 -55.01633789 9.52530273 -53.99633789 9.18530273 C-53.70758789 8.56655273 -53.41883789 7.94780273 -53.12133789 7.31030273 C-51.3414448 3.94828245 -48.29647395 2.83537076 -44.99633789 1.18530273 C-42.02334762 0.94418785 -39.07247524 0.76500914 -36.09399414 0.63452148 C-34.70580223 0.57176277 -34.70580223 0.57176277 -33.28956604 0.50773621 C-22.19611742 0.05155284 -11.10145736 -0.00076535 0 0 Z M-48.93383789 13.24780273 C-52.03028359 17.65789207 -52.70786766 20.84722935 -51.99633789 26.18530273 C-50.71208134 30.22674083 -49.02831546 34.06220999 -47.30883789 37.93530273 C-46.42993164 39.97176107 -45.55102539 42.0082194 -44.67211914 44.04467773 C-44.23158203 45.05095215 -43.79104492 46.05722656 -43.3371582 47.09399414 C-41.55365995 51.20591236 -39.84163048 55.34606731 -38.13525391 59.49047852 C-37.02100937 62.12692678 -35.83880322 64.72013728 -34.62133789 67.31030273 C-32.00337214 72.98393828 -29.7770619 78.79318397 -27.58276367 84.64086914 C-25.93840677 88.97008535 -24.09959052 93.09475072 -21.98486328 97.21386719 C-20.34889131 100.47651813 -18.93250398 103.83113114 -17.49633789 107.18530273 C-15.68206967 111.39009635 -13.87035843 115.56265579 -11.74633789 119.62280273 C-10.45837653 122.24472408 -9.54844007 124.44210701 -8.70336914 127.18530273 C-6.8381104 132.88341956 -4.3920008 138.28512289 -1.93383789 143.74780273 C2.37733135 153.42590829 6.54230966 163.15219581 10.56640625 172.953125 C12.87242211 178.55022706 15.30070435 184.07222538 17.82543945 189.57397461 C19.8440539 194.04788678 21.66333673 198.59970838 23.49584961 203.15209961 C24.76594122 206.27825692 26.0654796 209.30756737 27.58959961 212.32202148 C29.00366211 215.18530273 29.00366211 215.18530273 29.94873047 218.02392578 C30.93345664 220.97491378 32.05666628 223.77907435 33.29663086 226.63061523 C33.75489258 227.69046631 34.2131543 228.75031738 34.68530273 229.84228516 C35.43070313 231.55895386 35.43070313 231.55895386 36.19116211 233.31030273 C41.88418812 246.49708364 47.4276917 259.743038 52.92626953 273.01196289 C65.09762501 303.46906738 65.09762501 303.46906738 85.00366211 329.18530273 C85.66366211 329.18530273 86.32366211 329.18530273 87.00366211 329.18530273 C87.00366211 329.84530273 87.00366211 330.50530273 87.00366211 331.18530273 C99.53705368 341.16300273 112.96940637 343.60829323 128.50366211 343.56030273 C129.22019958 343.55909424 129.93673706 343.55788574 130.67498779 343.55664062 C151.739496 343.45990892 169.09279945 338.38490298 184.26538086 323.19702148 C196.01803195 310.68402497 203.71661192 292.70023279 208.35571289 276.3684082 C209.37267238 272.94201341 210.85140959 269.75455192 212.33178711 266.50952148 C213.14995929 263.67921654 212.90494147 261.97063947 212.00366211 259.18530273 C209.39944419 257.88319377 206.90108691 257.87605447 204.03491211 257.63989258 C196.08828511 256.96423578 189.46725715 255.70530813 182.19116211 252.20874023 C180.10425121 251.04404583 180.10425121 251.04404583 178.00366211 251.18530273 C178.00366211 250.52530273 178.00366211 249.86530273 178.00366211 249.18530273 C177.17866211 248.66967773 176.35366211 248.15405273 175.50366211 247.62280273 C158.60594087 236.64718006 149.14988123 211.28274164 142.58178711 193.07250977 C138.53154231 181.95318743 133.79782408 171.0783189 129.23706055 160.16113281 C127.73045042 156.52612276 126.24820723 152.91893809 125.00366211 149.18530273 C123.79833947 146.14312612 122.57720516 143.10789042 121.35131836 140.07397461 C119.82311675 136.27650881 118.36132193 132.46121407 116.93237305 128.625 C114.97342202 123.47889128 112.91518655 118.37115024 110.87011719 113.25878906 C110.06964883 111.2565243 109.27195059 109.25317049 108.47436523 107.24975586 C105.32759574 99.35193918 105.32759574 99.35193918 101.93725586 91.55639648 C99.86531944 86.98218604 98.09696311 82.30359632 96.3112793 77.61157227 C94.14119438 71.92543116 91.894548 66.27133257 89.62866211 60.62280273 C89.18522461 59.49422852 88.74178711 58.3656543 88.28491211 57.20288086 C84.10580518 46.82078522 79.2182391 36.68506023 71.44116211 28.49780273 C70.93431885 27.9609082 70.42747559 27.42401367 69.90527344 26.87084961 C58.96673781 15.72762207 43.64209001 7.74576841 27.8367157 7.04486084 C26.64617081 7.03803284 25.45562592 7.03120483 24.22900391 7.02416992 C23.23768967 7.01672256 23.23768967 7.01672256 22.22634888 7.00912476 C20.05184873 6.99458551 17.87742152 6.98771496 15.70288086 6.98217773 C14.95620462 6.97935036 14.20952839 6.97652298 13.4402256 6.97360992 C9.48879267 6.95865048 5.53739594 6.94940058 1.5859375 6.94506836 C-2.47915501 6.9395887 -6.54391174 6.91556229 -10.60889912 6.88709641 C-13.74976038 6.86839904 -16.89054189 6.86326067 -20.03145409 6.86173248 C-21.52925642 6.8587214 -23.02705786 6.85074549 -24.52480507 6.8375473 C-38.00678199 6.36384917 -38.00678199 6.36384917 -48.93383789 13.24780273 Z " fill="#FAF9FA" transform="translate(161.996337890625,142.814697265625)"/>
<path d="M0 0 C1.28642899 -0.0004985 2.57285797 -0.00099701 3.89826965 -0.00151062 C6.58993641 -0.00142192 9.28129722 0.00881036 11.97290039 0.02709961 C15.42402423 0.05003716 18.8747129 0.05027509 22.32589245 0.04358196 C25.63397852 0.03945067 28.94192901 0.05138985 32.25 0.0625 C33.4894487 0.06158859 34.7288974 0.06067719 36.00590515 0.05973816 C37.14501846 0.06927017 38.28413177 0.07880219 39.45776367 0.08862305 C40.96447884 0.09553413 40.96447884 0.09553413 42.50163269 0.10258484 C44.89453125 0.36328125 44.89453125 0.36328125 46.89453125 2.36328125 C47.88453125 2.85828125 47.88453125 2.85828125 48.89453125 3.36328125 C50.89453125 4.36328125 50.89453125 4.36328125 52.89453125 6.36328125 C52.89453125 7.35328125 52.89453125 8.34328125 52.89453125 9.36328125 C53.55453125 9.36328125 54.21453125 9.36328125 54.89453125 9.36328125 C54.89453125 10.35328125 54.89453125 11.34328125 54.89453125 12.36328125 C55.88453125 12.85828125 55.88453125 12.85828125 56.89453125 13.36328125 C56.75313644 15.61356454 56.60625122 17.86350331 56.45703125 20.11328125 C56.33521484 21.99273437 56.33521484 21.99273437 56.2109375 23.91015625 C55.96937603 26.54645678 55.65169191 28.84365419 54.89453125 31.36328125 C54.23453125 31.36328125 53.57453125 31.36328125 52.89453125 31.36328125 C52.70890625 32.38421875 52.70890625 32.38421875 52.51953125 33.42578125 C51.80352248 36.79102245 50.86508 40.0634155 49.89453125 43.36328125 C49.23453125 43.36328125 48.57453125 43.36328125 47.89453125 43.36328125 C47.49041016 44.85214844 47.49041016 44.85214844 47.078125 46.37109375 C45.92202424 50.4159212 44.46830455 54.31492875 42.95703125 58.23828125 C41.24045794 62.73053492 39.58168808 67.20924942 38.14453125 71.80078125 C36.89453125 75.36328125 36.89453125 75.36328125 34.89453125 76.36328125 C34.41467875 77.97421465 33.94436313 79.58853421 33.51953125 81.21484375 C32.56978504 84.47959636 31.2642635 87.58038787 29.97265625 90.72265625 C29.23198061 92.53677486 28.51439851 94.36044105 27.81640625 96.19140625 C27.4709375 97.09375 27.12546875 97.99609375 26.76953125 98.92578125 C26.45757812 99.75207031 26.145625 100.57835937 25.82421875 101.4296875 C24.89453125 103.36328125 24.89453125 103.36328125 22.89453125 104.36328125 C22.70890625 105.63171875 22.70890625 105.63171875 22.51953125 106.92578125 C21.9020527 110.3219133 20.7368915 112.73657465 19.13671875 115.76171875 C15.94016923 122.45637906 13.62953334 129.5917602 11.09619141 136.55883789 C10.02931459 139.45967662 9.01893141 142.16113099 7.39453125 144.80078125 C4.09206542 150.44249371 2.62862973 157.09384828 0.89453125 163.36328125 C0.23453125 163.36328125 -0.42546875 163.36328125 -1.10546875 163.36328125 C-0.77546875 164.35328125 -0.44546875 165.34328125 -0.10546875 166.36328125 C-1.09546875 166.69328125 -2.08546875 167.02328125 -3.10546875 167.36328125 C-2.85796875 167.89953125 -2.61046875 168.43578125 -2.35546875 168.98828125 C-2.10546875 171.36328125 -2.10546875 171.36328125 -3.90625 174.03515625 C-6.22738195 177.54777511 -7.66347594 181.04741873 -9.04296875 184.98828125 C-9.55286933 186.39779448 -10.06461064 187.80664307 -10.578125 189.21484375 C-10.83094238 189.9099707 -11.08375977 190.60509766 -11.34423828 191.32128906 C-13.11205921 196.06344887 -15.11432115 200.71139659 -17.10546875 205.36328125 C-17.76546875 205.36328125 -18.42546875 205.36328125 -19.10546875 205.36328125 C-19.16734375 206.45640625 -19.22921875 207.54953125 -19.29296875 208.67578125 C-19.86988496 213.57082785 -21.86791571 217.56887585 -24.046875 221.9453125 C-25.30599461 224.38138492 -25.30599461 224.38138492 -25.10546875 227.36328125 C-25.76546875 227.36328125 -26.42546875 227.36328125 -27.10546875 227.36328125 C-27.31042969 228.06195313 -27.51539063 228.760625 -27.7265625 229.48046875 C-27.99597656 230.39054688 -28.26539063 231.300625 -28.54296875 232.23828125 C-28.80980469 233.14320313 -29.07664062 234.048125 -29.3515625 234.98046875 C-30.10546875 237.36328125 -30.10546875 237.36328125 -31.10546875 239.36328125 C-31.76546875 239.36328125 -32.42546875 239.36328125 -33.10546875 239.36328125 C-33.18796875 240.35328125 -33.27046875 241.34328125 -33.35546875 242.36328125 C-33.96854882 246.83785073 -35.9251492 250.4589881 -38.10546875 254.36328125 C-38.76546875 254.36328125 -39.42546875 254.36328125 -40.10546875 254.36328125 C-40.43546875 256.01328125 -40.76546875 257.66328125 -41.10546875 259.36328125 C-41.76546875 259.36328125 -42.42546875 259.36328125 -43.10546875 259.36328125 C-43.31171875 260.04390625 -43.51796875 260.72453125 -43.73046875 261.42578125 C-46.99278052 268.39526549 -52.8811567 274.25912737 -60.04296875 277.11328125 C-69.41344909 279.96040549 -79.18057233 279.16572056 -88.10546875 275.36328125 C-89.09546875 275.03328125 -90.08546875 274.70328125 -91.10546875 274.36328125 C-91.10546875 273.70328125 -91.10546875 273.04328125 -91.10546875 272.36328125 C-91.97171875 272.02296875 -91.97171875 272.02296875 -92.85546875 271.67578125 C-95.72229585 270.00346544 -97.24257911 268.09108394 -99.10546875 265.36328125 C-99.10546875 264.37328125 -99.10546875 263.38328125 -99.10546875 262.36328125 C-99.76546875 262.36328125 -100.42546875 262.36328125 -101.10546875 262.36328125 C-104.10546875 257.97866587 -104.10546875 257.97866587 -104.10546875 255.36328125 C-104.76546875 255.36328125 -105.42546875 255.36328125 -106.10546875 255.36328125 C-106.33621094 254.84193604 -106.56695312 254.32059082 -106.8046875 253.78344727 C-108.69628232 249.51754581 -110.60659487 245.26140048 -112.54296875 241.015625 C-120.27560616 223.8948452 -128.9881807 204.05642557 -123.046875 184.9609375 C-121.73046875 182.11328125 -121.73046875 182.11328125 -120.34375 179.60546875 C-119.16202169 177.4656831 -118.50121152 175.59970318 -117.91796875 173.23828125 C-117.64984375 172.28953125 -117.38171875 171.34078125 -117.10546875 170.36328125 C-116.44546875 170.03328125 -115.78546875 169.70328125 -115.10546875 169.36328125 C-114.37150262 167.3869872 -113.72029543 165.37982101 -113.10546875 163.36328125 C-110.16834668 154.80847088 -107.1550724 146.28589965 -103.85546875 137.86328125 C-103.3759375 136.63609375 -102.89640625 135.40890625 -102.40234375 134.14453125 C-101.10546875 131.36328125 -101.10546875 131.36328125 -99.10546875 130.36328125 C-98.68868417 128.31409038 -98.27261072 126.26475322 -97.859375 124.21484375 C-96.30886397 118.35021653 -93.56540464 112.89204806 -91.10546875 107.36328125 C-87.98839961 100.06567232 -85.06539169 92.71783767 -82.31640625 85.2734375 C-81.13627487 82.43731532 -79.69662238 79.98349619 -78.10546875 77.36328125 C-77.30878627 75.41522887 -77.30878627 75.41522887 -76.73046875 73.42578125 C-73.77281341 64.18310833 -70.79583783 55.08272099 -66.12109375 46.546875 C-64.9979169 44.36234277 -64.9979169 44.36234277 -64.609375 41.796875 C-64.07903177 39.235605 -63.39211967 38.01816322 -61.79296875 35.98828125 C-60.00280557 33.62031324 -58.4205692 31.27241025 -56.98046875 28.67578125 C-55.48800152 26.03908915 -54.10370426 23.63400343 -52.10546875 21.36328125 C-51.44546875 21.36328125 -50.78546875 21.36328125 -50.10546875 21.36328125 C-50.10546875 20.37328125 -50.10546875 19.38328125 -50.10546875 18.36328125 C-49.44546875 18.36328125 -48.78546875 18.36328125 -48.10546875 18.36328125 C-48.10546875 17.70328125 -48.10546875 17.04328125 -48.10546875 16.36328125 C-43.09964053 11.55863289 -35.40600003 5.36328125 -28.10546875 5.36328125 C-27.77546875 4.70328125 -27.44546875 4.04328125 -27.10546875 3.36328125 C-18.23032218 0.31917614 -9.29035589 -0.07029501 0 0 Z M-34.10546875 15.36328125 C-34.10546875 16.02328125 -34.10546875 16.68328125 -34.10546875 17.36328125 C-35.42546875 17.69328125 -36.74546875 18.02328125 -38.10546875 18.36328125 C-38.10546875 19.02328125 -38.10546875 19.68328125 -38.10546875 20.36328125 C-38.68554688 20.61207031 -39.265625 20.86085938 -39.86328125 21.1171875 C-47.78994951 25.52242648 -52.21285072 34.55480567 -56.10546875 42.36328125 C-56.67587891 43.41515625 -56.67587891 43.41515625 -57.2578125 44.48828125 C-59.58713482 48.84806945 -60.99162367 53.18842155 -62.33203125 57.9375 C-63.26351137 60.85896039 -64.57362511 63.40712627 -66.00390625 66.109375 C-68.40871312 71.02984864 -70.17392823 76.2434607 -72.10546875 81.36328125 C-74.60490043 87.75387361 -77.23564673 94.08743777 -79.8828125 100.41796875 C-81.66701592 104.71601788 -83.38797261 109.03825047 -85.10546875 113.36328125 C-85.77168494 115.03012804 -86.43835456 116.69679366 -87.10546875 118.36328125 C-88.07610707 120.78875218 -89.04616265 123.21444175 -90.01318359 125.64135742 C-92.54959616 132.00106836 -95.13247648 138.3410101 -97.73046875 144.67578125 C-98.51450361 146.58846761 -99.2983638 148.50122558 -100.08203125 150.4140625 C-100.5937085 151.66183472 -100.5937085 151.66183472 -101.11572266 152.93481445 C-101.77516478 154.55283884 -102.42785336 156.17363228 -103.07373047 157.79711914 C-104.22860318 160.66954391 -105.43097266 163.51965518 -106.63671875 166.37109375 C-107.62650801 168.74340367 -108.61608382 171.11580267 -109.60546875 173.48828125 C-110.10433594 174.66132813 -110.60320312 175.834375 -111.1171875 177.04296875 C-116.12486295 189.12583176 -119.17510077 200.28094858 -114.91796875 213.05078125 C-114.69020752 213.75138672 -114.46244629 214.45199219 -114.2277832 215.17382812 C-108.65016927 232.0162611 -99.18261884 259.6313502 -83.10546875 269.36328125 C-77.38252342 271.98629786 -71.97275433 272.18023508 -66.04296875 270.11328125 C-49.28008893 263.11800256 -42.65913437 246.04417004 -36.10546875 230.36328125 C-35.50847168 228.93967285 -35.50847168 228.93967285 -34.89941406 227.48730469 C-32.36406678 221.43673785 -29.84291505 215.38039586 -27.33276367 209.31933594 C-26.48478382 207.27689709 -25.63314984 205.23597289 -24.77856445 203.19628906 C-22.19375653 197.02570073 -19.73823501 190.83925939 -17.4140625 184.56640625 C-16.10546875 181.36328125 -16.10546875 181.36328125 -14.33984375 177.89453125 C-11.47761743 172.27074307 -9.13105678 166.42085812 -6.73168945 160.58935547 C-5.91333396 158.60202594 -5.08880553 156.61733592 -4.26367188 154.6328125 C-3.73791305 153.36082921 -3.21250961 152.08869896 -2.6875 150.81640625 C-2.21546143 149.67333008 -1.74342285 148.53025391 -1.25708008 147.35253906 C-0.35176261 145.00259056 0.32472594 142.80313009 0.89453125 140.36328125 C1.73782595 138.45313385 2.61770701 136.55900245 3.51953125 134.67578125 C6.86443541 127.51942602 9.88014575 120.25748446 12.84912109 112.93847656 C13.98158344 110.14884256 15.11933942 107.36140495 16.2578125 104.57421875 C21.71828308 91.19916838 27.15180151 77.81313258 32.58203125 64.42578125 C32.90472992 63.63031891 33.22742859 62.83485657 33.55990601 62.01528931 C37.61989591 52.00499867 41.67133862 41.9915743 45.63745117 31.94360352 C46.69790962 29.27008812 47.74066192 26.65010563 49.1015625 24.11328125 C50.54570051 20.92621806 49.79423577 17.61904652 48.89453125 14.36328125 C46.6662108 10.82870399 44.73679412 8.92238172 40.89453125 7.36328125 C38.45095392 7.04947342 38.45095392 7.04947342 35.79736328 7.07275391 C34.27394821 7.05361435 34.27394821 7.05361435 32.71975708 7.03408813 C31.62501068 7.03186249 30.53026428 7.02963684 29.40234375 7.02734375 C28.26481659 7.02068695 27.12728943 7.01403015 25.95529175 7.00717163 C23.54280207 6.99704179 21.13028436 6.99235471 18.71777344 6.99267578 C15.06787201 6.98833869 11.41921583 6.95212124 7.76953125 6.9140625 C-7.61781666 6.83959929 -20.42280765 7.70099103 -34.10546875 15.36328125 Z " fill="#FAF9FA" transform="translate(439.10546875,105.63671875)"/>
<path d="M0 0 C0.33 0 0.66 0 1 0 C1.33 2.31 1.66 4.62 2 7 C1.34 7 0.68 7 0 7 C-0.66 8.65 -1.32 10.3 -2 12 C-2.33 10.68 -2.66 9.36 -3 8 C-2.34 8 -1.68 8 -1 8 C-0.67 5.36 -0.34 2.72 0 0 Z " fill="#F1F0F1" transform="translate(489,123)"/>
<path d="M0 0 C3 1 3 1 3 1 Z " fill="#E5E5E7" transform="translate(253,473)"/>
<path d="M0 0 C0.99 0.495 0.99 0.495 2 1 C1.01 1.495 1.01 1.495 0 2 C0 1.34 0 0.68 0 0 Z " fill="#E4E4E6" transform="translate(288,317)"/>
<path d="M0 0 C3 1 3 1 3 1 Z " fill="#E5E5E8" transform="translate(136,263)"/>
<path d="M0 0 C2 1 2 1 2 1 Z " fill="#E2E1E3" transform="translate(276,481)"/>
<path d="" fill="#F7F7F7" transform="translate(0,0)"/>
<path d="" fill="#E5E5E7" transform="translate(0,0)"/>
<path d="M0 0 C2 1 2 1 2 1 Z " fill="#E7E6E9" transform="translate(318,340)"/>
<path d="" fill="#E1E1E3" transform="translate(0,0)"/>
<path d="" fill="#F2F2F3" transform="translate(0,0)"/>
<path d="" fill="#DFDFE0" transform="translate(0,0)"/>
<path d="M0 0 C2 1 2 1 2 1 Z " fill="#E5E5E7" transform="translate(328,247)"/>
<path d="M0 0 C2 1 2 1 2 1 Z " fill="#E3E3E5" transform="translate(328,244)"/>
<path d="M0 0 C2 1 2 1 2 1 Z " fill="#E3E2E5" transform="translate(454,242)"/>
<path d="M0 0 C2 1 2 1 2 1 Z " fill="#F4F4F5" transform="translate(135,225)"/>
<path d="" fill="#EEEEEE" transform="translate(0,0)"/>
<path d="M0 0 C2 1 2 1 2 1 Z " fill="#EBEBED" transform="translate(452,209)"/>
<path d="M0 0 C2 1 2 1 2 1 Z " fill="#EBEAEC" transform="translate(129,208)"/>
<path d="M0 0 C2 1 2 1 2 1 Z " fill="#E4E4E6" transform="translate(456,196)"/>
<path d="M0 0 C2 1 2 1 2 1 Z " fill="#E0E0E2" transform="translate(459,186)"/>
<path d="" fill="#E5E5E6" transform="translate(0,0)"/>
<path d="M0 0 C2 1 2 1 2 1 Z " fill="#E1E1E2" transform="translate(357,184)"/>
<path d="M0 0 C2 1 2 1 2 1 Z " fill="#E5E5E7" transform="translate(362,168)"/>
<path d="" fill="#F6F7F7" transform="translate(0,0)"/>
<path d="M0 0 C2 1 2 1 2 1 Z " fill="#E0E0E3" transform="translate(396,135)"/>
<path d="" fill="#F2F2F4" transform="translate(0,0)"/>
<path d="" fill="#FAFAFB" transform="translate(0,0)"/>
<path d="" fill="#F0F0F1" transform="translate(0,0)"/>
<path d="" fill="#F7F6F7" transform="translate(0,0)"/>
<path d="" fill="#E1E1E3" transform="translate(0,0)"/>
<path d="" fill="#E6E6E8" transform="translate(0,0)"/>
<path d="" fill="#EAEAEC" transform="translate(0,0)"/>
<path d="" fill="#E6E6E6" transform="translate(0,0)"/>
<path d="" fill="#F4F4F5" transform="translate(0,0)"/>
<path d="" fill="#D8D8DA" transform="translate(0,0)"/>
<path d="" fill="#F8F7F8" transform="translate(0,0)"/>
<path d="" fill="#D8D8DA" transform="translate(0,0)"/>
<path d="" fill="#E2E1E4" transform="translate(0,0)"/>
<path d="" fill="#D8D8DA" transform="translate(0,0)"/>
<path d="" fill="#E1E1E3" transform="translate(0,0)"/>
<path d="" fill="#F4F4F5" transform="translate(0,0)"/>
<path d="" fill="#D8D8DA" transform="translate(0,0)"/>
<path d="" fill="#E2E1E3" transform="translate(0,0)"/>
<path d="" fill="#F7F7F8" transform="translate(0,0)"/>
<path d="" fill="#E0DFE0" transform="translate(0,0)"/>
<path d="" fill="#F7F7F8" transform="translate(0,0)"/>
<path d="" fill="#D8D8DA" transform="translate(0,0)"/>
<path d="" fill="#E6E6E8" transform="translate(0,0)"/>
<path d="" fill="#E5E4E7" transform="translate(0,0)"/>
<path d="" fill="#E6E6E8" transform="translate(0,0)"/>
<path d="" fill="#F5F5F6" transform="translate(0,0)"/>
<path d="" fill="#E5E4E7" transform="translate(0,0)"/>
<path d="" fill="#D8D8DA" transform="translate(0,0)"/>
<path d="" fill="#F4F4F4" transform="translate(0,0)"/>
<path d="" fill="#E2E2E4" transform="translate(0,0)"/>
<path d="" fill="#F2F2F3" transform="translate(0,0)"/>
<path d="" fill="#F6F5F7" transform="translate(0,0)"/>
<path d="" fill="#D8D8DA" transform="translate(0,0)"/>
<path d="" fill="#E2E2E4" transform="translate(0,0)"/>
<path d="" fill="#E9E9EB" transform="translate(0,0)"/>
<path d="" fill="#F1F1F2" transform="translate(0,0)"/>
<path d="" fill="#F7F6F8" transform="translate(0,0)"/>
<path d="" fill="#E1E1E3" transform="translate(0,0)"/>
<path d="" fill="#E1E1E3" transform="translate(0,0)"/>
<path d="" fill="#D8D8DA" transform="translate(0,0)"/>
<path d="" fill="#F4F4F5" transform="translate(0,0)"/>
<path d="" fill="#E4E4E6" transform="translate(0,0)"/>
<path d="" fill="#F5F4F6" transform="translate(0,0)"/>
<path d="" fill="#F6F6F7" transform="translate(0,0)"/>
<path d="" fill="#E4E4E6" transform="translate(0,0)"/>
<path d="" fill="#E9E9EA" transform="translate(0,0)"/>
<path d="" fill="#E1E0E3" transform="translate(0,0)"/>
<path d="" fill="#F6F6F7" transform="translate(0,0)"/>
<path d="" fill="#E1E1E3" transform="translate(0,0)"/>
<path d="" fill="#E5E5E7" transform="translate(0,0)"/>
<path d="" fill="#E2E2E4" transform="translate(0,0)"/>
<path d="" fill="#EAEAEC" transform="translate(0,0)"/>
<path d="" fill="#E2E2E4" transform="translate(0,0)"/>
<path d="" fill="#F4F4F4" transform="translate(0,0)"/>
<path d="" fill="#D8D8DA" transform="translate(0,0)"/>
<path d="" fill="#E2E2E4" transform="translate(0,0)"/>
<path d="" fill="#E2E2E4" transform="translate(0,0)"/>
<path d="" fill="#D8D8DA" transform="translate(0,0)"/>
<path d="" fill="#E5E5E5" transform="translate(0,0)"/>
<path d="" fill="#F3F4F4" transform="translate(0,0)"/>
<path d="" fill="#E5E4E5" transform="translate(0,0)"/>
<path d="" fill="#E5E5E7" transform="translate(0,0)"/>
<path d="" fill="#D8D8DA" transform="translate(0,0)"/>
<path d="" fill="#F6F6F7" transform="translate(0,0)"/>
<path d="" fill="#E2E2E4" transform="translate(0,0)"/>
<path d="" fill="#E2E1E3" transform="translate(0,0)"/>
<path d="" fill="#ECEBEE" transform="translate(0,0)"/>
<path d="" fill="#D8D8DA" transform="translate(0,0)"/>
<path d="" fill="#F3F3F4" transform="translate(0,0)"/>
<path d="" fill="#D8D8DA" transform="translate(0,0)"/>
<path d="" fill="#E9E9EB" transform="translate(0,0)"/>
<path d="" fill="#EAEAEA" transform="translate(0,0)"/>
<path d="" fill="#F7F7F8" transform="translate(0,0)"/>
<path d="" fill="#F4F4F5" transform="translate(0,0)"/>
<path d="" fill="#F6F6F7" transform="translate(0,0)"/>
<path d="" fill="#F8F8F9" transform="translate(0,0)"/>
<path d="" fill="#E5E5E7" transform="translate(0,0)"/>
<path d="" fill="#E5E5E7" transform="translate(0,0)"/>
<path d="" fill="#F7F7F7" transform="translate(0,0)"/>
<path d="" fill="#D8D8DA" transform="translate(0,0)"/>
<path d="" fill="#EBEBEC" transform="translate(0,0)"/>
<path d="" fill="#F9F8F9" transform="translate(0,0)"/>
<path d="" fill="#E1E1E3" transform="translate(0,0)"/>
<path d="" fill="#E4E3E3" transform="translate(0,0)"/>
<path d="" fill="#EAEAEC" transform="translate(0,0)"/>
<path d="" fill="#E1E1E3" transform="translate(0,0)"/>
<path d="" fill="#E5E5E7" transform="translate(0,0)"/>
<path d="" fill="#F9F9FB" transform="translate(0,0)"/>
<path d="" fill="#F8F8F8" transform="translate(0,0)"/>
<path d="" fill="#E3E3E4" transform="translate(0,0)"/>
<path d="" fill="#E1E1E3" transform="translate(0,0)"/>
<path d="" fill="#E0E0E0" transform="translate(0,0)"/>
<path d="" fill="#E5E5E6" transform="translate(0,0)"/>
<path d="" fill="#E9E9EB" transform="translate(0,0)"/>
<path d="" fill="#D8D8DA" transform="translate(0,0)"/>
<path d="" fill="#E1E1E3" transform="translate(0,0)"/>
<path d="" fill="#D8D7D9" transform="translate(0,0)"/>
<path d="" fill="#F7F6F9" transform="translate(0,0)"/>
<path d="" fill="#F6F6F7" transform="translate(0,0)"/>
<path d="" fill="#EAEAEB" transform="translate(0,0)"/>
<path d="" fill="#F3F3F4" transform="translate(0,0)"/>
<path d="" fill="#E4E4E6" transform="translate(0,0)"/>
<path d="" fill="#E8E8E9" transform="translate(0,0)"/>
<path d="" fill="#E1E1E3" transform="translate(0,0)"/>
<path d="" fill="#E1E1E3" transform="translate(0,0)"/>
<path d="" fill="#F8F8F9" transform="translate(0,0)"/>
<path d="" fill="#E5E4E5" transform="translate(0,0)"/>
<path d="" fill="#D8D8DA" transform="translate(0,0)"/>
<path d="" fill="#E1E1E3" transform="translate(0,0)"/>
<path d="" fill="#E1E1E3" transform="translate(0,0)"/>
<path d="" fill="#F0F0F0" transform="translate(0,0)"/>
<path d="" fill="#F0EFF1" transform="translate(0,0)"/>
<path d="" fill="#F2F2F2" transform="translate(0,0)"/>
<path d="" fill="#E4E4E6" transform="translate(0,0)"/>
<path d="" fill="#DCDCDD" transform="translate(0,0)"/>
<path d="" fill="#E4E4E6" transform="translate(0,0)"/>
<path d="" fill="#D7D7D9" transform="translate(0,0)"/>
<path d="" fill="#E1E1E3" transform="translate(0,0)"/>
<path d="" fill="#E1E1E3" transform="translate(0,0)"/>
<path d="" fill="#D7D7D9" transform="translate(0,0)"/>
<path d="" fill="#D8D7DA" transform="translate(0,0)"/>
<path d="" fill="#F6F6F7" transform="translate(0,0)"/>
<path d="" fill="#F1F1F1" transform="translate(0,0)"/>
<path d="" fill="#D8D8DA" transform="translate(0,0)"/>
<path d="" fill="#E1E1E3" transform="translate(0,0)"/>
<path d="" fill="#E9E9EB" transform="translate(0,0)"/>
<path d="" fill="#F2F2F2" transform="translate(0,0)"/>
<path d="" fill="#F4F4F6" transform="translate(0,0)"/>
<path d="" fill="#F4F4F6" transform="translate(0,0)"/>
<path d="" fill="#F0F0F1" transform="translate(0,0)"/>
<path d="" fill="#DDDDDE" transform="translate(0,0)"/>
<path d="" fill="#EFEEEF" transform="translate(0,0)"/>
<path d="" fill="#E1E1E3" transform="translate(0,0)"/>
<path d="" fill="#D7D7D9" transform="translate(0,0)"/>
<path d="" fill="#D7D7D8" transform="translate(0,0)"/>
<path d="" fill="#DEDDDD" transform="translate(0,0)"/>
<path d="" fill="#E1E1E3" transform="translate(0,0)"/>
<path d="" fill="#E4E4E5" transform="translate(0,0)"/>
<path d="" fill="#E1E1E3" transform="translate(0,0)"/>
<path d="" fill="#D7D7D9" transform="translate(0,0)"/>
<path d="" fill="#E5E5E7" transform="translate(0,0)"/>
<path d="" fill="#F4F4F4" transform="translate(0,0)"/>
<path d="" fill="#D8D8DA" transform="translate(0,0)"/>
<path d="" fill="#EBEBEC" transform="translate(0,0)"/>
<path d="" fill="#D7D7D9" transform="translate(0,0)"/>
<path d="" fill="#E9E9EB" transform="translate(0,0)"/>
<path d="" fill="#FAFAFA" transform="translate(0,0)"/>
<path d="" fill="#E5E5E7" transform="translate(0,0)"/>
<path d="" fill="#D7D7D9" transform="translate(0,0)"/>
<path d="" fill="#E1E1E3" transform="translate(0,0)"/>
<path d="" fill="#F2F2F2" transform="translate(0,0)"/>
<path d="" fill="#F7F7F8" transform="translate(0,0)"/>
<path d="" fill="#E1E1E3" transform="translate(0,0)"/>
<path d="" fill="#D7D7D9" transform="translate(0,0)"/>
<path d="" fill="#E1E1E3" transform="translate(0,0)"/>
<path d="" fill="#D7D7D9" transform="translate(0,0)"/>
<path d="" fill="#E1E1E3" transform="translate(0,0)"/>
<path d="" fill="#D7D7D9" transform="translate(0,0)"/>
<path d="" fill="#F7F7F7" transform="translate(0,0)"/>
<path d="" fill="#E1E1E3" transform="translate(0,0)"/>
<path d="" fill="#D8D8D9" transform="translate(0,0)"/>
<path d="" fill="#E1E1E3" transform="translate(0,0)"/>
<path d="" fill="#F4F4F6" transform="translate(0,0)"/>
<path d="" fill="#E4E4E6" transform="translate(0,0)"/>
<path d="" fill="#F4F4F4" transform="translate(0,0)"/>
<path d="" fill="#E1E0E2" transform="translate(0,0)"/>
<path d="" fill="#E7E7E8" transform="translate(0,0)"/>
<path d="" fill="#EFEFF0" transform="translate(0,0)"/>
<path d="" fill="#F6F7F8" transform="translate(0,0)"/>
<path d="" fill="#DFDEE0" transform="translate(0,0)"/>
<path d="" fill="#D7D7D9" transform="translate(0,0)"/>
<path d="" fill="#E4E4E6" transform="translate(0,0)"/>
<path d="" fill="#E0E0E2" transform="translate(0,0)"/>
<path d="" fill="#E1E1E3" transform="translate(0,0)"/>
<path d="" fill="#D7D7D9" transform="translate(0,0)"/>
<path d="" fill="#EEEDEF" transform="translate(0,0)"/>
<path d="" fill="#D7D7D9" transform="translate(0,0)"/>
<path d="" fill="#DBDBDC" transform="translate(0,0)"/>
<path d="" fill="#F4F4F5" transform="translate(0,0)"/>
<path d="" fill="#D7D7D9" transform="translate(0,0)"/>
<path d="" fill="#D7D7D9" transform="translate(0,0)"/>
<path d="" fill="#F1F1F1" transform="translate(0,0)"/>
<path d="" fill="#D7D7D9" transform="translate(0,0)"/>
<path d="" fill="#E1E1E3" transform="translate(0,0)"/>
<path d="" fill="#D7D7D9" transform="translate(0,0)"/>
<path d="" fill="#D7D7D9" transform="translate(0,0)"/>
<path d="" fill="#F6F6F7" transform="translate(0,0)"/>
<path d="" fill="#E4E3E6" transform="translate(0,0)"/>
<path d="" fill="#E5E5E7" transform="translate(0,0)"/>
<path d="" fill="#E3E3E6" transform="translate(0,0)"/>
<path d="" fill="#E4E3E6" transform="translate(0,0)"/>
<path d="" fill="#F1F1F2" transform="translate(0,0)"/>
<path d="" fill="#EDEDEE" transform="translate(0,0)"/>
<path d="" fill="#E0E0E2" transform="translate(0,0)"/>
<path d="" fill="#D7D7D9" transform="translate(0,0)"/>
<path d="" fill="#E5E5E7" transform="translate(0,0)"/>
<path d="" fill="#F6F6F7" transform="translate(0,0)"/>
<path d="" fill="#F0F0F1" transform="translate(0,0)"/>
<path d="" fill="#F5F5F6" transform="translate(0,0)"/>
<path d="" fill="#F5F4F5" transform="translate(0,0)"/>
<path d="" fill="#E0E0E2" transform="translate(0,0)"/>
<path d="" fill="#D7D7D9" transform="translate(0,0)"/>
<path d="" fill="#D6D6D8" transform="translate(0,0)"/>
<path d="" fill="#F5F5F6" transform="translate(0,0)"/>
<path d="" fill="#F1F1F2" transform="translate(0,0)"/>
<path d="" fill="#F1F1F2" transform="translate(0,0)"/>
<path d="" fill="#D7D6D9" transform="translate(0,0)"/>
<path d="" fill="#F6F6F7" transform="translate(0,0)"/>
<path d="" fill="#F0F0F1" transform="translate(0,0)"/>
<path d="" fill="#D7D7D9" transform="translate(0,0)"/>
<path d="" fill="#D7D7D9" transform="translate(0,0)"/>
<path d="" fill="#F1F1F2" transform="translate(0,0)"/>
<path d="" fill="#E0E0E2" transform="translate(0,0)"/>
<path d="" fill="#F2F2F3" transform="translate(0,0)"/>
<path d="" fill="#EFEFEF" transform="translate(0,0)"/>
<path d="" fill="#E8E8E9" transform="translate(0,0)"/>
<path d="" fill="#D7D6D9" transform="translate(0,0)"/>
<path d="" fill="#E0E0E2" transform="translate(0,0)"/>
<path d="" fill="#DCDCDD" transform="translate(0,0)"/>
<path d="" fill="#E8E8EA" transform="translate(0,0)"/>
<path d="" fill="#D7D7D9" transform="translate(0,0)"/>
<path d="" fill="#F3F3F5" transform="translate(0,0)"/>
<path d="" fill="#F6F6F7" transform="translate(0,0)"/>
<path d="" fill="#E0E0E2" transform="translate(0,0)"/>
<path d="" fill="#E5E5E8" transform="translate(0,0)"/>
<path d="" fill="#E4E3E5" transform="translate(0,0)"/>
<path d="" fill="#F2F2F3" transform="translate(0,0)"/>
<path d="" fill="#F6F6F7" transform="translate(0,0)"/>
<path d="" fill="#F8F8F9" transform="translate(0,0)"/>
<path d="" fill="#F7F7F8" transform="translate(0,0)"/>
<path d="" fill="#F4F3F4" transform="translate(0,0)"/>
<path d="" fill="#F2F2F3" transform="translate(0,0)"/>
<path d="" fill="#E0E0E2" transform="translate(0,0)"/>
<path d="" fill="#E0E0E2" transform="translate(0,0)"/>
<path d="" fill="#E0E0E2" transform="translate(0,0)"/>
<path d="" fill="#E0E0E2" transform="translate(0,0)"/>
<path d="" fill="#E6E6E8" transform="translate(0,0)"/>
<path d="" fill="#E0E0E2" transform="translate(0,0)"/>
<path d="" fill="#EFEFF0" transform="translate(0,0)"/>
<path d="" fill="#F2F2F4" transform="translate(0,0)"/>
<path d="" fill="#F6F6F6" transform="translate(0,0)"/>
<path d="" fill="#E5E5E7" transform="translate(0,0)"/>
<path d="" fill="#E4E3E6" transform="translate(0,0)"/>
<path d="" fill="#ECECEC" transform="translate(0,0)"/>
<path d="" fill="#E3E3E5" transform="translate(0,0)"/>
<path d="" fill="#F2F2F2" transform="translate(0,0)"/>
<path d="" fill="#E9E9EB" transform="translate(0,0)"/>
<path d="" fill="#F8F8F9" transform="translate(0,0)"/>
<path d="" fill="#F6F6F8" transform="translate(0,0)"/>
<path d="" fill="#DDDDDE" transform="translate(0,0)"/>
<path d="" fill="#EEEEEF" transform="translate(0,0)"/>
<path d="" fill="#F6F6F7" transform="translate(0,0)"/>
<path d="" fill="#E0E0E2" transform="translate(0,0)"/>
<path d="" fill="#E4E3E6" transform="translate(0,0)"/>
<path d="" fill="#D7D7D9" transform="translate(0,0)"/>
<path d="" fill="#D7D7D7" transform="translate(0,0)"/>
<path d="" fill="#D7D7D9" transform="translate(0,0)"/>
<path d="" fill="#D7D7D9" transform="translate(0,0)"/>
<path d="" fill="#F7F7F8" transform="translate(0,0)"/>
<path d="" fill="#D7D7D9" transform="translate(0,0)"/>
<path d="" fill="#E7E6E7" transform="translate(0,0)"/>
<path d="" fill="#D6D6D8" transform="translate(0,0)"/>
<path d="" fill="#F6F6F7" transform="translate(0,0)"/>
<path d="" fill="#DEDEDF" transform="translate(0,0)"/>
<path d="" fill="#E7E7E8" transform="translate(0,0)"/>
<path d="" fill="#D7D7D9" transform="translate(0,0)"/>
<path d="" fill="#E6E6E9" transform="translate(0,0)"/>
<path d="" fill="#DFDFDF" transform="translate(0,0)"/>
<path d="" fill="#E4E4E6" transform="translate(0,0)"/>
<path d="" fill="#F7F7F7" transform="translate(0,0)"/>
<path d="" fill="#F6F6F7" transform="translate(0,0)"/>
<path d="" fill="#E1E0E3" transform="translate(0,0)"/>
<path d="" fill="#F2F1F3" transform="translate(0,0)"/>
<path d="" fill="#F5F5F6" transform="translate(0,0)"/>
<path d="" fill="#E1E0E3" transform="translate(0,0)"/>
<path d="" fill="#E7E7E9" transform="translate(0,0)"/>
<path d="" fill="#D6D6D9" transform="translate(0,0)"/>
<path d="" fill="#E5E5E7" transform="translate(0,0)"/>
<path d="" fill="#DBDBDD" transform="translate(0,0)"/>
<path d="" fill="#F5F5F6" transform="translate(0,0)"/>
<path d="" fill="#E1E0E3" transform="translate(0,0)"/>
<path d="" fill="#E8E8EA" transform="translate(0,0)"/>
<path d="" fill="#DFDFE2" transform="translate(0,0)"/>
<path d="" fill="#D6D6D8" transform="translate(0,0)"/>
<path d="" fill="#F6F6F7" transform="translate(0,0)"/>
<path d="" fill="#DFDFE1" transform="translate(0,0)"/>
<path d="" fill="#F0F0F2" transform="translate(0,0)"/>
<path d="" fill="#DFDFE1" transform="translate(0,0)"/>
<path d="" fill="#F7F7F9" transform="translate(0,0)"/>
<path d="" fill="#DEDDDF" transform="translate(0,0)"/>
<path d="" fill="#DBDBDC" transform="translate(0,0)"/>
<path d="" fill="#D7D7D9" transform="translate(0,0)"/>
<path d="" fill="#F1F1F2" transform="translate(0,0)"/>
<path d="" fill="#E8E8E9" transform="translate(0,0)"/>
<path d="" fill="#EBEBEB" transform="translate(0,0)"/>
<path d="" fill="#D7D7D9" transform="translate(0,0)"/>
<path d="" fill="#F3F3F4" transform="translate(0,0)"/>
<path d="" fill="#E7E7E9" transform="translate(0,0)"/>
<path d="" fill="#E2E2E5" transform="translate(0,0)"/>
<path d="" fill="#F7F7F8" transform="translate(0,0)"/>
<path d="" fill="#E0E0E2" transform="translate(0,0)"/>
<path d="" fill="#DFDFE1" transform="translate(0,0)"/>
<path d="" fill="#E7E7E9" transform="translate(0,0)"/>
<path d="" fill="#DFDFE1" transform="translate(0,0)"/>
<path d="" fill="#D7D7D9" transform="translate(0,0)"/>
<path d="" fill="#DFDFE1" transform="translate(0,0)"/>
<path d="" fill="#F7F7F7" transform="translate(0,0)"/>
<path d="" fill="#F5F5F6" transform="translate(0,0)"/>
<path d="" fill="#D7D6D9" transform="translate(0,0)"/>
<path d="" fill="#DFDFE1" transform="translate(0,0)"/>
<path d="" fill="#D5D5D7" transform="translate(0,0)"/>
<path d="" fill="#F1F1F2" transform="translate(0,0)"/>
<path d="" fill="#EFEEF0" transform="translate(0,0)"/>
<path d="" fill="#F8F8F8" transform="translate(0,0)"/>
<path d="" fill="#E4E3E6" transform="translate(0,0)"/>
<path d="" fill="#F4F4F5" transform="translate(0,0)"/>
<path d="" fill="#D8D8D9" transform="translate(0,0)"/>
<path d="" fill="#F1F1F1" transform="translate(0,0)"/>
<path d="" fill="#EAE9EC" transform="translate(0,0)"/>
<path d="" fill="#D7D7D9" transform="translate(0,0)"/>
<path d="" fill="#F7F6F8" transform="translate(0,0)"/>
<path d="" fill="#F5F5F7" transform="translate(0,0)"/>
<path d="" fill="#DCDCDD" transform="translate(0,0)"/>
<path d="" fill="#F6F6F7" transform="translate(0,0)"/>
<path d="" fill="#E0E0E2" transform="translate(0,0)"/>
<path d="" fill="#D5D5D7" transform="translate(0,0)"/>
<path d="" fill="#D5D5D8" transform="translate(0,0)"/>
<path d="" fill="#E5E5E8" transform="translate(0,0)"/>
<path d="" fill="#E5E5E7" transform="translate(0,0)"/>
<path d="" fill="#EFEFF1" transform="translate(0,0)"/>
<path d="" fill="#E0E0E2" transform="translate(0,0)"/>
<path d="" fill="#E5E5E7" transform="translate(0,0)"/>
<path d="" fill="#F5F5F6" transform="translate(0,0)"/>
<path d="" fill="#E0E0E2" transform="translate(0,0)"/>
<path d="" fill="#E4E3E6" transform="translate(0,0)"/>
<path d="" fill="#E4E3E6" transform="translate(0,0)"/>
<path d="" fill="#F0F0F1" transform="translate(0,0)"/>
<path d="" fill="#F2F1F3" transform="translate(0,0)"/>
<path d="" fill="#D5D5D7" transform="translate(0,0)"/>
<path d="" fill="#E7E7E9" transform="translate(0,0)"/>
<path d="" fill="#D7D7D9" transform="translate(0,0)"/>
<path d="" fill="#F3F3F5" transform="translate(0,0)"/>
<path d="" fill="#EDEDF0" transform="translate(0,0)"/>
<path d="" fill="#F6F6F7" transform="translate(0,0)"/>
<path d="" fill="#EDEDEE" transform="translate(0,0)"/>
<path d="" fill="#F6F7F7" transform="translate(0,0)"/>
<path d="" fill="#EFEFF1" transform="translate(0,0)"/>
<path d="" fill="#E3E3E5" transform="translate(0,0)"/>
<path d="" fill="#F8F8F9" transform="translate(0,0)"/>
<path d="" fill="#E4E3E6" transform="translate(0,0)"/>
<path d="" fill="#F0EFF2" transform="translate(0,0)"/>
<path d="" fill="#D6D6D8" transform="translate(0,0)"/>
<path d="" fill="#D6D6D8" transform="translate(0,0)"/>
<path d="" fill="#E4E3E6" transform="translate(0,0)"/>
<path d="" fill="#D7D7D9" transform="translate(0,0)"/>
<path d="" fill="#EFEFF0" transform="translate(0,0)"/>
<path d="" fill="#DEDEE1" transform="translate(0,0)"/>
<path d="" fill="#D7D7D9" transform="translate(0,0)"/>
<path d="" fill="#E0DFE1" transform="translate(0,0)"/>
<path d="" fill="#DEDEE1" transform="translate(0,0)"/>
<path d="" fill="#E0E0E2" transform="translate(0,0)"/>
<path d="" fill="#F9F8FB" transform="translate(0,0)"/>
<path d="" fill="#E0E0E2" transform="translate(0,0)"/>
<path d="" fill="#E0DFE2" transform="translate(0,0)"/>
<path d="" fill="#E0DFE2" transform="translate(0,0)"/>
<path d="" fill="#D7D7D9" transform="translate(0,0)"/>
<path d="" fill="#E3E3E5" transform="translate(0,0)"/>
<path d="" fill="#F4F4F5" transform="translate(0,0)"/>
<path d="" fill="#E1E1E2" transform="translate(0,0)"/>
<path d="" fill="#F4F3F5" transform="translate(0,0)"/>
<path d="" fill="#D5D5D7" transform="translate(0,0)"/>
<path d="" fill="#F8F7F8" transform="translate(0,0)"/>
<path d="" fill="#D7D7D8" transform="translate(0,0)"/>
<path d="" fill="#EEEDEF" transform="translate(0,0)"/>
<path d="" fill="#D7D7D9" transform="translate(0,0)"/>
<path d="" fill="#E3E3E5" transform="translate(0,0)"/>
<path d="" fill="#E4E4E5" transform="translate(0,0)"/>
<path d="" fill="#E8E8EA" transform="translate(0,0)"/>
<path d="" fill="#E0DFE2" transform="translate(0,0)"/>
<path d="" fill="#F5F5F6" transform="translate(0,0)"/>
<path d="" fill="#F3F2F3" transform="translate(0,0)"/>
<path d="" fill="#E9E9EB" transform="translate(0,0)"/>
<path d="" fill="#D7D7D9" transform="translate(0,0)"/>
<path d="" fill="#ECEBEC" transform="translate(0,0)"/>
<path d="" fill="#E8E8E9" transform="translate(0,0)"/>
<path d="" fill="#E8E8EA" transform="translate(0,0)"/>
<path d="" fill="#F6F5F7" transform="translate(0,0)"/>
<path d="" fill="#F5F5F6" transform="translate(0,0)"/>
<path d="" fill="#D6D6D9" transform="translate(0,0)"/>
<path d="" fill="#E0E0E3" transform="translate(0,0)"/>
</svg>
